<svg xmlns="http://www.w3.org/2000/svg" xmlns:xlink="http://www.w3.org/1999/xlink" width="500" zoomAndPan="magnify" viewBox="0 0 375 374.999991" height="500" preserveAspectRatio="xMidYMid meet" version="1.0"><defs><clipPath id="id1"><path d="M 17.855469 83.871094 L 356.855469 83.871094 L 356.855469 269.871094 L 17.855469 269.871094 Z M 17.855469 83.871094 " clip-rule="nonzero"/></clipPath><clipPath id="id2"><path d="M 189.730469 203 L 211.238281 203 L 211.238281 252.5 L 189.730469 252.5 Z M 189.730469 203 " clip-rule="nonzero"/></clipPath><clipPath id="id3"><path d="M 162.253906 203 L 183.714844 203 L 183.714844 252.5 L 162.253906 252.5 Z M 162.253906 203 " clip-rule="nonzero"/></clipPath></defs><rect x="-37.5" width="450" fill="rgb(100%, 100%, 100%)" y="-37.499999" height="449.999989" fill-opacity="1"/><rect x="-37.5" width="450" fill="rgb(100%, 100%, 100%)" y="-37.499999" height="449.999989" fill-opacity="1"/><rect x="-37.5" width="450" fill="rgb(100%, 100%, 100%)" y="-37.499999" height="449.999989" fill-opacity="1"/><rect x="-37.5" width="450" fill="rgb(100%, 100%, 100%)" y="-37.499999" height="449.999989" fill-opacity="1"/><g clip-path="url(#id1)"><path fill="rgb(14.509583%, 25.489807%, 45.878601%)" d="M 32.675781 229.449219 C 32.675781 225.296875 36.042969 221.929688 40.191406 221.929688 C 40.746094 221.929688 41.289062 221.988281 41.808594 222.101562 C 45.183594 222.84375 47.707031 225.851562 47.707031 229.449219 C 47.707031 233.046875 45.183594 236.058594 41.808594 236.796875 C 41.289062 236.914062 40.746094 236.972656 40.191406 236.972656 C 36.042969 236.972656 32.675781 233.605469 32.675781 229.449219 Z M 276.726562 122.996094 C 276.726562 118.839844 271.5625 115.472656 269.210938 115.472656 C 266.855469 115.472656 268.113281 115.53125 267.59375 115.648438 C 264.21875 116.386719 261.695312 119.398438 261.695312 122.996094 C 261.695312 126.59375 264.21875 129.601562 267.59375 130.34375 C 268.113281 130.457031 266.855469 130.519531 269.210938 130.519531 C 271.5625 130.519531 276.726562 127.148438 276.726562 122.996094 Z M 251.785156 130.34375 L 225.804688 130.34375 L 234.082031 149.816406 L 320.527344 149.816406 C 323.394531 143.019531 328.8125 138.246094 337.949219 138.246094 C 347.082031 138.246094 356.851562 146.71875 356.851562 157.164062 C 356.851562 167.613281 347.085938 176.085938 337.949219 176.085938 C 328.8125 176.085938 323.394531 171.3125 320.527344 164.511719 L 240.332031 164.511719 L 249.511719 186.105469 L 279.289062 186.105469 C 282.152344 179.304688 287.574219 174.53125 296.710938 174.53125 C 305.84375 174.53125 315.613281 183.003906 315.613281 193.453125 C 315.613281 203.898438 305.847656 212.371094 296.710938 212.371094 C 287.574219 212.371094 282.152344 207.597656 279.289062 200.800781 L 255.761719 200.800781 L 264.816406 222.097656 L 317.09375 222.097656 C 319.957031 215.296875 326.679688 210.527344 334.515625 210.527344 C 344.953125 210.527344 353.417969 218.996094 353.417969 229.445312 C 353.417969 239.890625 344.953125 248.363281 334.515625 248.363281 C 326.679688 248.363281 319.957031 243.589844 317.09375 236.792969 L 271.066406 236.792969 L 285.109375 269.828125 L 242.6875 269.828125 L 240.414062 264.246094 L 225.820312 228.421875 L 211.210938 192.554688 L 211.328125 192.554688 L 187.351562 133.976562 L 163.375 192.554688 L 163.492188 192.554688 L 148.882812 228.421875 L 134.289062 264.246094 L 132.015625 269.828125 L 89.59375 269.828125 L 103.636719 236.792969 L 57.609375 236.792969 C 54.746094 243.589844 48.023438 248.363281 40.1875 248.363281 C 29.75 248.363281 21.285156 239.890625 21.285156 229.445312 C 21.285156 218.996094 29.75 210.527344 40.1875 210.527344 C 48.023438 210.527344 54.746094 215.296875 57.609375 222.097656 L 109.886719 222.097656 L 115.925781 207.898438 L 118.941406 200.800781 L 95.414062 200.800781 C 92.550781 207.597656 87.128906 212.371094 77.992188 212.371094 C 68.859375 212.371094 59.089844 203.898438 59.089844 193.453125 C 59.089844 183.003906 68.855469 174.53125 77.992188 174.53125 C 87.128906 174.53125 92.550781 179.304688 95.414062 186.105469 L 125.191406 186.105469 L 134.371094 164.511719 L 54.175781 164.511719 C 51.308594 171.3125 45.886719 176.085938 36.753906 176.085938 C 27.621094 176.085938 17.851562 167.613281 17.851562 157.164062 C 17.851562 146.71875 27.617188 138.246094 36.753906 138.246094 C 45.886719 138.246094 51.308594 143.019531 54.175781 149.816406 L 140.621094 149.816406 L 148.898438 130.34375 L 122.917969 130.34375 C 120.050781 137.140625 114.628906 141.914062 105.496094 141.914062 C 96.359375 141.914062 86.59375 133.441406 86.59375 122.996094 C 86.59375 112.546875 96.359375 104.074219 105.496094 104.074219 C 114.628906 104.074219 120.050781 108.847656 122.917969 115.648438 L 155.148438 115.648438 L 168.644531 83.90625 L 206.058594 83.90625 L 219.554688 115.648438 L 251.785156 115.648438 C 254.652344 108.847656 260.074219 104.074219 269.207031 104.074219 C 278.34375 104.074219 288.109375 112.546875 288.109375 122.996094 C 288.109375 133.441406 278.34375 141.914062 269.207031 141.914062 C 260.074219 141.914062 254.652344 137.140625 251.785156 130.34375 Z M 345.46875 157.164062 C 345.46875 153.011719 340.304688 149.644531 337.953125 149.644531 C 335.597656 149.644531 336.855469 149.703125 336.332031 149.816406 C 332.960938 150.558594 330.4375 153.566406 330.4375 157.164062 C 330.4375 160.761719 332.960938 163.773438 336.332031 164.511719 C 336.855469 164.628906 335.597656 164.6875 337.953125 164.6875 C 340.304688 164.6875 345.46875 161.320312 345.46875 157.164062 Z M 304.230469 193.453125 C 304.230469 189.300781 299.066406 185.933594 296.710938 185.933594 C 294.359375 185.933594 295.613281 185.992188 295.09375 186.105469 C 291.722656 186.847656 289.195312 189.855469 289.195312 193.453125 C 289.195312 197.050781 291.722656 200.0625 295.09375 200.800781 C 295.613281 200.917969 294.359375 200.976562 296.710938 200.976562 C 299.066406 200.976562 304.230469 197.609375 304.230469 193.453125 Z M 342.035156 229.449219 C 342.035156 225.292969 338.667969 221.925781 334.515625 221.925781 C 333.964844 221.925781 333.417969 221.984375 332.898438 222.101562 C 329.527344 222.839844 327 225.851562 327 229.449219 C 327 233.046875 329.527344 236.054688 332.898438 236.796875 C 333.417969 236.910156 333.964844 236.96875 334.515625 236.96875 C 338.667969 236.96875 342.035156 233.601562 342.035156 229.449219 Z M 97.980469 122.992188 C 97.980469 118.835938 103.144531 115.46875 105.496094 115.46875 C 107.851562 115.46875 106.597656 115.527344 107.117188 115.644531 C 110.488281 116.386719 113.015625 119.394531 113.015625 122.992188 C 113.015625 126.589844 110.488281 129.597656 107.117188 130.339844 C 106.597656 130.457031 107.851562 130.515625 105.496094 130.515625 C 103.144531 130.515625 97.980469 127.144531 97.980469 122.992188 Z M 29.242188 157.164062 C 29.242188 153.007812 34.402344 149.640625 36.757812 149.640625 C 39.109375 149.640625 37.855469 149.699219 38.375 149.816406 C 41.746094 150.554688 44.273438 153.566406 44.273438 157.164062 C 44.273438 160.761719 41.746094 163.769531 38.375 164.511719 C 37.855469 164.625 39.109375 164.683594 36.757812 164.683594 C 34.402344 164.683594 29.242188 161.316406 29.242188 157.164062 Z M 70.480469 193.453125 C 70.480469 189.296875 75.640625 185.929688 77.996094 185.929688 C 80.347656 185.929688 79.09375 185.988281 79.613281 186.105469 C 82.988281 186.84375 85.511719 189.855469 85.511719 193.453125 C 85.511719 197.050781 82.988281 200.058594 79.613281 200.800781 C 79.09375 200.914062 80.347656 200.972656 77.996094 200.972656 C 75.640625 200.972656 70.480469 197.605469 70.480469 193.453125 Z M 70.480469 193.453125 " fill-opacity="1" fill-rule="evenodd"/></g><g clip-path="url(#id2)"><path fill="rgb(14.509583%, 25.489807%, 45.878601%)" d="M -112.941406 227.910156 C -112.941406 223.753906 -109.574219 220.386719 -105.425781 220.386719 C -104.871094 220.386719 -104.328125 220.445312 -103.804688 220.5625 C -100.433594 221.304688 -97.910156 224.3125 -97.910156 227.910156 C -97.910156 231.507812 -100.433594 234.519531 -103.804688 235.257812 C -104.328125 235.375 -104.871094 235.433594 -105.425781 235.433594 C -109.574219 235.433594 -112.941406 232.0625 -112.941406 227.910156 Z M 131.109375 121.457031 C 131.109375 117.300781 125.949219 113.933594 123.59375 113.933594 C 121.242188 113.933594 122.496094 113.992188 121.976562 114.105469 C 118.601562 114.847656 116.078125 117.855469 116.078125 121.457031 C 116.078125 125.054688 118.601562 128.0625 121.976562 128.804688 C 122.496094 128.917969 121.242188 128.976562 123.59375 128.976562 C 125.949219 128.976562 131.109375 125.609375 131.109375 121.457031 Z M 106.167969 128.804688 L 80.1875 128.804688 L 88.464844 148.277344 L 174.910156 148.277344 C 177.777344 141.480469 183.199219 136.707031 192.332031 136.707031 C 201.46875 136.707031 211.234375 145.179688 211.234375 155.625 C 211.234375 166.074219 201.46875 174.546875 192.332031 174.546875 C 183.199219 174.546875 177.777344 169.773438 174.910156 162.972656 L 94.714844 162.972656 L 103.894531 184.5625 L 133.671875 184.5625 C 136.539062 177.765625 141.960938 172.992188 151.09375 172.992188 C 160.226562 172.992188 169.996094 181.464844 169.996094 191.910156 C 169.996094 202.359375 160.230469 210.832031 151.09375 210.832031 C 141.960938 210.832031 136.539062 206.058594 133.671875 199.261719 L 110.144531 199.261719 L 119.199219 220.558594 L 171.476562 220.558594 C 174.34375 213.757812 181.066406 208.984375 188.898438 208.984375 C 199.335938 208.984375 207.800781 217.457031 207.800781 227.90625 C 207.800781 238.351562 199.335938 246.824219 188.898438 246.824219 C 181.066406 246.824219 174.34375 242.050781 171.476562 235.253906 L 125.449219 235.253906 L 139.492188 268.289062 L 97.070312 268.289062 L 94.796875 262.707031 L 80.203125 226.882812 L 65.59375 191.015625 L 65.714844 191.015625 L 41.734375 132.4375 L 17.757812 191.015625 L 17.875 191.015625 L 3.265625 226.882812 L -11.328125 262.707031 L -13.601562 268.289062 L -56.023438 268.289062 L -41.980469 235.253906 L -88.007812 235.253906 C -90.871094 242.050781 -97.59375 246.824219 -105.429688 246.824219 C -115.867188 246.824219 -124.332031 238.351562 -124.332031 227.90625 C -124.332031 217.457031 -115.867188 208.984375 -105.429688 208.984375 C -97.59375 208.984375 -90.871094 213.757812 -88.007812 220.558594 L -35.730469 220.558594 L -29.691406 206.355469 L -26.671875 199.261719 L -50.203125 199.261719 C -53.066406 206.058594 -58.488281 210.832031 -67.621094 210.832031 C -76.757812 210.832031 -86.527344 202.359375 -86.527344 191.910156 C -86.527344 181.464844 -76.761719 172.992188 -67.621094 172.992188 C -58.488281 172.992188 -53.066406 177.765625 -50.203125 184.5625 L -20.425781 184.5625 L -11.246094 162.972656 L -91.441406 162.972656 C -94.304688 169.773438 -99.726562 174.546875 -108.863281 174.546875 C -117.996094 174.546875 -127.765625 166.074219 -127.765625 155.625 C -127.765625 145.179688 -118 136.707031 -108.863281 136.707031 C -99.726562 136.707031 -94.304688 141.480469 -91.441406 148.277344 L -4.996094 148.277344 L 3.28125 128.804688 L -22.699219 128.804688 C -25.566406 135.601562 -30.984375 140.375 -40.121094 140.375 C -49.253906 140.375 -59.023438 131.902344 -59.023438 121.457031 C -59.023438 111.007812 -49.257812 102.535156 -40.121094 102.535156 C -30.984375 102.535156 -25.566406 107.308594 -22.699219 114.105469 L 9.53125 114.105469 L 23.027344 82.367188 L 60.445312 82.367188 L 73.9375 114.105469 L 106.167969 114.105469 C 109.035156 107.308594 114.457031 102.535156 123.589844 102.535156 C 132.726562 102.535156 142.492188 111.007812 142.492188 121.457031 C 142.492188 131.902344 132.730469 140.375 123.589844 140.375 C 114.457031 140.375 109.035156 135.601562 106.167969 128.804688 Z M 199.851562 155.625 C 199.851562 151.46875 194.6875 148.101562 192.335938 148.101562 C 189.984375 148.101562 191.238281 148.164062 190.71875 148.277344 C 187.34375 149.019531 184.820312 152.027344 184.820312 155.625 C 184.820312 159.222656 187.34375 162.234375 190.71875 162.972656 C 191.238281 163.089844 189.984375 163.148438 192.335938 163.148438 C 194.6875 163.148438 199.851562 159.777344 199.851562 155.625 Z M 158.613281 191.914062 C 158.613281 187.757812 153.449219 184.390625 151.097656 184.390625 C 148.742188 184.390625 150 184.453125 149.476562 184.566406 C 146.105469 185.308594 143.582031 188.316406 143.582031 191.914062 C 143.582031 195.511719 146.105469 198.523438 149.476562 199.261719 C 150 199.378906 148.742188 199.4375 151.097656 199.4375 C 153.449219 199.4375 158.613281 196.066406 158.613281 191.914062 Z M 196.417969 227.90625 C 196.417969 223.753906 193.050781 220.386719 188.902344 220.386719 C 188.347656 220.386719 187.804688 220.445312 187.28125 220.558594 C 183.910156 221.300781 181.386719 224.308594 181.386719 227.90625 C 181.386719 231.503906 183.910156 234.515625 187.28125 235.257812 C 187.804688 235.371094 188.347656 235.429688 188.902344 235.429688 C 193.050781 235.429688 196.417969 232.0625 196.417969 227.90625 Z M -47.632812 121.453125 C -47.632812 117.296875 -42.472656 113.929688 -40.117188 113.929688 C -37.765625 113.929688 -39.019531 113.988281 -38.5 114.105469 C -35.128906 114.84375 -32.601562 117.855469 -32.601562 121.453125 C -32.601562 125.050781 -35.128906 128.058594 -38.5 128.800781 C -39.019531 128.914062 -37.765625 128.976562 -40.117188 128.976562 C -42.472656 128.976562 -47.632812 125.605469 -47.632812 121.453125 Z M -116.375 155.621094 C -116.375 151.46875 -111.210938 148.101562 -108.859375 148.101562 C -106.507812 148.101562 -107.761719 148.160156 -107.242188 148.273438 C -103.867188 149.015625 -101.34375 152.023438 -101.34375 155.621094 C -101.34375 159.222656 -103.867188 162.230469 -107.242188 162.972656 C -107.761719 163.085938 -106.507812 163.144531 -108.859375 163.144531 C -111.210938 163.144531 -116.375 159.777344 -116.375 155.621094 Z M -75.136719 191.910156 C -75.136719 187.757812 -69.972656 184.390625 -67.621094 184.390625 C -65.265625 184.390625 -66.523438 184.449219 -66 184.5625 C -62.628906 185.304688 -60.105469 188.3125 -60.105469 191.910156 C -60.105469 195.507812 -62.628906 198.519531 -66 199.261719 C -66.523438 199.375 -65.265625 199.433594 -67.621094 199.433594 C -69.972656 199.433594 -75.136719 196.066406 -75.136719 191.910156 Z M -75.136719 191.910156 " fill-opacity="1" fill-rule="evenodd"/></g><g clip-path="url(#id3)"><path fill="rgb(14.509583%, 25.489807%, 45.878601%)" d="M 486.433594 227.910156 C 486.433594 223.753906 483.066406 220.386719 478.917969 220.386719 C 478.363281 220.386719 477.820312 220.445312 477.300781 220.5625 C 473.925781 221.304688 471.402344 224.3125 471.402344 227.910156 C 471.402344 231.507812 473.925781 234.519531 477.300781 235.257812 C 477.820312 235.375 478.363281 235.433594 478.917969 235.433594 C 483.066406 235.433594 486.433594 232.0625 486.433594 227.910156 Z M 242.382812 121.457031 C 242.382812 117.300781 247.546875 113.933594 249.898438 113.933594 C 252.25 113.933594 250.996094 113.992188 251.515625 114.105469 C 254.890625 114.847656 257.414062 117.855469 257.414062 121.457031 C 257.414062 125.054688 254.890625 128.0625 251.515625 128.804688 C 250.996094 128.917969 252.25 128.976562 249.898438 128.976562 C 247.546875 128.976562 242.382812 125.609375 242.382812 121.457031 Z M 267.324219 128.804688 L 293.304688 128.804688 L 285.027344 148.277344 L 198.582031 148.277344 C 195.714844 141.480469 190.292969 136.707031 181.160156 136.707031 C 172.023438 136.707031 162.257812 145.179688 162.257812 155.625 C 162.257812 166.074219 172.023438 174.546875 181.160156 174.546875 C 190.292969 174.546875 195.714844 169.773438 198.582031 162.972656 L 278.777344 162.972656 L 269.597656 184.5625 L 239.820312 184.5625 C 236.953125 177.765625 231.535156 172.992188 222.398438 172.992188 C 213.265625 172.992188 203.496094 181.464844 203.496094 191.910156 C 203.496094 202.359375 213.261719 210.832031 222.398438 210.832031 C 231.535156 210.832031 236.953125 206.058594 239.820312 199.261719 L 263.347656 199.261719 L 254.292969 220.558594 L 202.015625 220.558594 C 199.148438 213.757812 192.429688 208.984375 184.59375 208.984375 C 174.15625 208.984375 165.691406 217.457031 165.691406 227.90625 C 165.691406 238.351562 174.15625 246.824219 184.59375 246.824219 C 192.429688 246.824219 199.148438 242.050781 202.015625 235.253906 L 248.042969 235.253906 L 234 268.289062 L 276.421875 268.289062 L 278.695312 262.707031 L 293.289062 226.882812 L 307.898438 191.015625 L 307.78125 191.015625 L 331.757812 132.4375 L 355.734375 191.015625 L 355.617188 191.015625 L 370.226562 226.882812 L 384.820312 262.707031 L 387.09375 268.289062 L 429.515625 268.289062 L 415.472656 235.253906 L 461.5 235.253906 C 464.363281 242.050781 471.085938 246.824219 478.921875 246.824219 C 489.359375 246.824219 497.824219 238.351562 497.824219 227.90625 C 497.824219 217.457031 489.359375 208.984375 478.921875 208.984375 C 471.085938 208.984375 464.363281 213.757812 461.5 220.558594 L 409.222656 220.558594 L 403.183594 206.355469 L 400.167969 199.261719 L 423.695312 199.261719 C 426.558594 206.058594 431.980469 210.832031 441.117188 210.832031 C 450.25 210.832031 460.019531 202.359375 460.019531 191.910156 C 460.019531 181.464844 450.253906 172.992188 441.117188 172.992188 C 431.980469 172.992188 426.558594 177.765625 423.695312 184.5625 L 393.917969 184.5625 L 384.738281 162.972656 L 464.933594 162.972656 C 467.796875 169.773438 473.21875 174.546875 482.355469 174.546875 C 491.488281 174.546875 501.257812 166.074219 501.257812 155.625 C 501.257812 145.179688 491.492188 136.707031 482.355469 136.707031 C 473.21875 136.707031 467.796875 141.480469 464.933594 148.277344 L 378.488281 148.277344 L 370.210938 128.804688 L 396.191406 128.804688 C 399.058594 135.601562 404.480469 140.375 413.613281 140.375 C 422.75 140.375 432.515625 131.902344 432.515625 121.457031 C 432.515625 111.007812 422.75 102.535156 413.613281 102.535156 C 404.480469 102.535156 399.058594 107.308594 396.191406 114.105469 L 363.960938 114.105469 L 350.464844 82.367188 L 313.050781 82.367188 L 299.554688 114.105469 L 267.324219 114.105469 C 264.457031 107.308594 259.035156 102.535156 249.902344 102.535156 C 240.765625 102.535156 231 111.007812 231 121.457031 C 231 131.902344 240.765625 140.375 249.902344 140.375 C 259.035156 140.375 264.457031 135.601562 267.324219 128.804688 Z M 173.640625 155.625 C 173.640625 151.46875 178.804688 148.101562 181.15625 148.101562 C 183.511719 148.101562 182.253906 148.164062 182.777344 148.277344 C 186.148438 149.019531 188.671875 152.027344 188.671875 155.625 C 188.671875 159.222656 186.148438 162.234375 182.777344 162.972656 C 182.253906 163.089844 183.511719 163.148438 181.15625 163.148438 C 178.804688 163.148438 173.640625 159.777344 173.640625 155.625 Z M 214.878906 191.914062 C 214.878906 187.757812 220.042969 184.390625 222.394531 184.390625 C 224.75 184.390625 223.492188 184.453125 224.015625 184.566406 C 227.386719 185.308594 229.910156 188.316406 229.910156 191.914062 C 229.910156 195.511719 227.386719 198.523438 224.015625 199.261719 C 223.492188 199.378906 224.75 199.4375 222.394531 199.4375 C 220.042969 199.4375 214.878906 196.066406 214.878906 191.914062 Z M 177.074219 227.90625 C 177.074219 223.753906 180.441406 220.386719 184.589844 220.386719 C 185.144531 220.386719 185.6875 220.445312 186.210938 220.558594 C 189.582031 221.300781 192.105469 224.308594 192.105469 227.90625 C 192.105469 231.503906 189.582031 234.515625 186.210938 235.257812 C 185.6875 235.371094 185.144531 235.429688 184.589844 235.429688 C 180.441406 235.429688 177.074219 232.0625 177.074219 227.90625 Z M 421.125 121.453125 C 421.125 117.296875 415.964844 113.929688 413.609375 113.929688 C 411.257812 113.929688 412.511719 113.988281 411.992188 114.105469 C 408.621094 114.84375 406.09375 117.855469 406.09375 121.453125 C 406.09375 125.050781 408.621094 128.058594 411.992188 128.800781 C 412.511719 128.914062 411.257812 128.976562 413.609375 128.976562 C 415.964844 128.976562 421.125 125.605469 421.125 121.453125 Z M 489.867188 155.621094 C 489.867188 151.46875 484.707031 148.101562 482.351562 148.101562 C 480 148.101562 481.253906 148.160156 480.734375 148.273438 C 477.359375 149.015625 474.835938 152.023438 474.835938 155.621094 C 474.835938 159.222656 477.359375 162.230469 480.734375 162.972656 C 481.253906 163.085938 480 163.144531 482.351562 163.144531 C 484.707031 163.144531 489.867188 159.777344 489.867188 155.621094 Z M 448.628906 191.910156 C 448.628906 187.757812 443.464844 184.390625 441.113281 184.390625 C 438.757812 184.390625 440.015625 184.449219 439.496094 184.5625 C 436.121094 185.304688 433.597656 188.3125 433.597656 191.910156 C 433.597656 195.507812 436.121094 198.519531 439.496094 199.261719 C 440.015625 199.375 438.757812 199.433594 441.113281 199.433594 C 443.464844 199.433594 448.628906 196.066406 448.628906 191.910156 Z M 448.628906 191.910156 " fill-opacity="1" fill-rule="evenodd"/></g></svg>